<?xml version="1.0" encoding="UTF-8" standalone="no"?>
<!-- Created with Inkscape (http://www.inkscape.org/) -->

<svg
   xmlns:dc="http://purl.org/dc/elements/1.1/"
   xmlns:cc="http://creativecommons.org/ns#"
   xmlns:rdf="http://www.w3.org/1999/02/22-rdf-syntax-ns#"
   xmlns:svg="http://www.w3.org/2000/svg"
   xmlns="http://www.w3.org/2000/svg"
   xmlns:sodipodi="http://sodipodi.sourceforge.net/DTD/sodipodi-0.dtd"
   xmlns:inkscape="http://www.inkscape.org/namespaces/inkscape"
   width="199.64935mm"
   height="61.205147mm"
   viewBox="0 0 199.64935 61.205147"
   version="1.1"
   id="svg8"
   inkscape:version="0.92.4 (5da689c313, 2019-01-14)"
   sodipodi:docname="ground.svg">
  <defs
     id="defs2" />
  <sodipodi:namedview
     id="base"
     pagecolor="#ffffff"
     bordercolor="#666666"
     borderopacity="1.0"
     inkscape:pageopacity="0.0"
     inkscape:pageshadow="2"
     inkscape:zoom="1.979899"
     inkscape:cx="93.047818"
     inkscape:cy="351.24746"
     inkscape:document-units="mm"
     inkscape:current-layer="layer1"
     showgrid="false"
     inkscape:window-width="3000"
     inkscape:window-height="1875"
     inkscape:window-x="-13"
     inkscape:window-y="-13"
     inkscape:window-maximized="1" />
  <metadata
     id="metadata5">
    <rdf:RDF>
      <cc:Work
         rdf:about="">
        <dc:format>image/svg+xml</dc:format>
        <dc:type
           rdf:resource="http://purl.org/dc/dcmitype/StillImage" />
        <dc:title></dc:title>
      </cc:Work>
    </rdf:RDF>
  </metadata>
  <g
     inkscape:label="Capa 1"
     inkscape:groupmode="layer"
     id="layer1"
     transform="translate(-51.181743,-195.70307)">
    <path
       style="fill:#445016;stroke:#000000;stroke-width:0.26458332px;stroke-linecap:butt;stroke-linejoin:miter;stroke-opacity:0"
       d="m 51.315749,216.68551 6.147199,-1.60362 3.741772,-2.13816 6.949009,-0.66817 6.280832,-3.0736 4.409948,-1.60362 4.409948,-1.20271 4.81085,0.26727 3.34087,-0.26727 8.285356,-3.74177 8.953527,-2.6727 3.20724,0.13363 5.34539,-1.73725 11.49259,-2.53906 6.81537,1.46998 6.68174,5.47903 8.68626,3.87541 9.08716,4.54358 5.87993,-2.6727 4.00904,-0.4009 8.8199,4.67722 9.88897,0.66817 9.2208,-3.87541 10.15624,0.53454 4.27631,8.95353 8.95353,0.13363 7.75082,-3.20723 11.35895,4.00904 10.42351,1.46999 v 35.27957 l -199.383062,0 z"
       id="path21"
       inkscape:connector-curvature="0"
       sodipodi:nodetypes="cccccccccccccccccccccccccccccccc" />
    <path
       style="fill:#89a02c;stroke:#000000;stroke-width:0.26458332px;stroke-linecap:butt;stroke-linejoin:miter;stroke-opacity:0"
       d="M 250.69881,256.77593 H 51.315748 l 0.400906,-31.00326 8.418988,-1.73725 11.626226,3.60813 6.013563,4.54359 7.483547,2.27179 10.022607,0.93544 12.695305,-2.40542 12.56167,-3.60814 8.15172,1.60361 10.69078,-4.27631 8.41899,-0.93544 9.88897,4.27631 15.63527,3.20723 15.10072,-3.4745 11.22532,0.93544 12.69531,-0.8018 6.68173,-5.34539 6.81538,-1.33635 5.87993,-2.00452 8.81989,1.73725 10.15624,7.08264 z"
       id="path23"
       inkscape:connector-curvature="0"
       sodipodi:nodetypes="cccccccccccccccccccccccc" />
  </g>
</svg>
