<?xml version="1.0" encoding="UTF-8"?>
<svg width="1024px" height="1024px" viewBox="0 0 1024 1024" version="1.1" xmlns="http://www.w3.org/2000/svg" xmlns:xlink="http://www.w3.org/1999/xlink">
    <!-- Generator: Sketch 58 (84663) - https://sketch.com -->
    <title>where is the airplane</title>
    <desc>Created with Sketch.</desc>
    <defs>
        <polygon id="path-1" points="0 0 150 0 150 150 0 150"></polygon>
    </defs>
    <g id="where-is-the-airplane" stroke="none" stroke-width="1" fill="none" fill-rule="evenodd">
        <rect id="Rectangle" stroke="#979797" fill="#FFD400" x="0" y="0" width="1024" height="1024" rx="209"></rect>
        <g id="Group" transform="translate(110.000000, 78.000000)" fill="#000000" fill-rule="nonzero">
            <polygon id="X" points="151.481707 0 98.2134146 70.952381 156 150 113.670732 150 76.3353659 99.047619 39.7134146 150 0 150 57.5487805 73.0952381 4.2804878 0 46.6097561 0 79.1890244 45.2380952 111.530488 0"></polygon>
            <polygon id="X-Copy" points="367.481707 0 314.213415 70.952381 372 150 329.670732 150 292.335366 99.047619 255.713415 150 216 150 273.54878 73.0952381 220.280488 0 262.609756 0 295.189024 45.2380952 327.530488 0"></polygon>
            <polygon id="X-Copy-2" points="583.481707 0 530.213415 70.952381 588 150 545.670732 150 508.335366 99.047619 471.713415 150 432 150 489.54878 73.0952381 436.280488 0 478.609756 0 511.189024 45.2380952 543.530488 0"></polygon>
            <polygon id="X-Copy-3" points="799.481707 0 746.213415 70.952381 804 150 761.670732 150 724.335366 99.047619 687.713415 150 648 150 705.54878 73.0952381 652.280488 0 694.609756 0 727.189024 45.2380952 759.530488 0"></polygon>
        </g>
        <g id="Group-Copy" transform="translate(110.000000, 306.000000)" fill="#000000" fill-rule="nonzero">
            <polygon id="X" points="151.481707 0 98.2134146 70.952381 156 150 113.670732 150 76.3353659 99.047619 39.7134146 150 0 150 57.5487805 73.0952381 4.2804878 0 46.6097561 0 79.1890244 45.2380952 111.530488 0"></polygon>
            <polygon id="X-Copy" points="367.481707 0 314.213415 70.952381 372 150 329.670732 150 292.335366 99.047619 255.713415 150 216 150 273.54878 73.0952381 220.280488 0 262.609756 0 295.189024 45.2380952 327.530488 0"></polygon>
            <polygon id="X-Copy-3" points="799.481707 0 746.213415 70.952381 804 150 761.670732 150 724.335366 99.047619 687.713415 150 648 150 705.54878 73.0952381 652.280488 0 694.609756 0 727.189024 45.2380952 759.530488 0"></polygon>
        </g>
        <g id="Group-Copy-2" transform="translate(110.000000, 534.000000)" fill="#000000" fill-rule="nonzero">
            <polygon id="X" points="151.481707 0 98.2134146 70.952381 156 150 113.670732 150 76.3353659 99.047619 39.7134146 150 0 150 57.5487805 73.0952381 4.2804878 0 46.6097561 0 79.1890244 45.2380952 111.530488 0"></polygon>
            <polygon id="X-Copy" points="367.481707 0 314.213415 70.952381 372 150 329.670732 150 292.335366 99.047619 255.713415 150 216 150 273.54878 73.0952381 220.280488 0 262.609756 0 295.189024 45.2380952 327.530488 0"></polygon>
            <polygon id="X-Copy-2" points="583.481707 0 530.213415 70.952381 588 150 545.670732 150 508.335366 99.047619 471.713415 150 432 150 489.54878 73.0952381 436.280488 0 478.609756 0 511.189024 45.2380952 543.530488 0"></polygon>
            <polygon id="X-Copy-3" points="799.481707 0 746.213415 70.952381 804 150 761.670732 150 724.335366 99.047619 687.713415 150 648 150 705.54878 73.0952381 652.280488 0 694.609756 0 727.189024 45.2380952 759.530488 0"></polygon>
        </g>
        <g id="Group-Copy-3" transform="translate(110.000000, 762.000000)" fill="#000000" fill-rule="nonzero">
            <polygon id="X" points="151.481707 0 98.2134146 70.952381 156 150 113.670732 150 76.3353659 99.047619 39.7134146 150 0 150 57.5487805 73.0952381 4.2804878 0 46.6097561 0 79.1890244 45.2380952 111.530488 0"></polygon>
            <polygon id="X-Copy" points="367.481707 0 314.213415 70.952381 372 150 329.670732 150 292.335366 99.047619 255.713415 150 216 150 273.54878 73.0952381 220.280488 0 262.609756 0 295.189024 45.2380952 327.530488 0"></polygon>
            <polygon id="X-Copy-2" points="583.481707 0 530.213415 70.952381 588 150 545.670732 150 508.335366 99.047619 471.713415 150 432 150 489.54878 73.0952381 436.280488 0 478.609756 0 511.189024 45.2380952 543.530488 0"></polygon>
            <polygon id="X-Copy-3" points="799.481707 0 746.213415 70.952381 804 150 761.670732 150 724.335366 99.047619 687.713415 150 648 150 705.54878 73.0952381 652.280488 0 694.609756 0 727.189024 45.2380952 759.530488 0"></polygon>
        </g>
        <g id="Group-3" transform="translate(539.000000, 305.000000)">
            <mask id="mask-2" fill="white">
                <use xlink:href="#path-1"></use>
            </mask>
            <g id="Clip-2"></g>
            <path d="M0,98.5918513 C1.41304057,95.5131719 3.19027358,93.4792311 6.63313223,93.507326 C15.875005,93.5837703 25.1168777,93.6863494 34.3580977,93.6549876 C35.6425614,93.6510674 37.3049237,93.3420234 38.15079,92.5161637 C47.8038477,83.0926082 57.3328973,73.542299 66.8867484,64.0174712 C67.1060471,63.7979389 67.2287499,63.4817078 67.5178848,63.0152016 C59.5598231,57.8620724 51.6330897,52.7207039 43.6985243,47.5917494 C32.3765775,40.2740055 21.0533254,32.9575682 9.72093589,25.6568119 C7.73288898,24.3762067 5.28731715,23.4752095 6.67033469,20.2325342 C7.72244619,17.7673692 10.6901577,16.0967021 13.6435104,16.6860418 C20.8849354,18.1312962 28.1387612,19.5308148 35.3318883,21.1897212 C37.4765771,21.6843223 38.7147008,21.1746937 40.0911916,19.6033389 C42.4519158,16.9075342 45.0632669,14.431262 47.5669268,11.860251 C49.6150198,9.75705299 51.8288921,9.68779577 53.8469621,11.7138961 C59.0115764,16.8990404 62.508607,17.1630019 55.1784183,25.1406496 C59.0690118,25.9593222 62.7337798,26.829611 66.4429297,27.4267912 C67.1576084,27.541131 68.1816549,26.7244185 68.8271501,26.0952231 C70.6944522,24.2749343 72.347677,22.2266194 74.2756779,20.4788547 C75.2612166,19.5850445 77.2140191,18.2796112 77.7694452,18.6402715 C80.6875534,20.537658 83.635032,22.6251751 85.8495571,25.2556427 C86.7130456,26.282087 85.6883464,28.9014473 85.4742691,31.3581185 C88.3258046,31.9461515 91.9598969,32.8366948 95.6468559,33.3528571 C96.5423255,33.4783041 97.790892,32.5557457 98.5714909,31.7991432 C106.224754,24.3788202 113.7886,16.8657186 121.429462,9.43167473 C126.480511,4.51767898 131.97081,0.179955569 139.22333,-0.764164077 C148.720399,-2.00099348 151.346109,1.61279597 149.398527,10.4136898 C148.143434,16.0855948 145.185513,21.090409 140.98033,25.2680567 C132.721385,33.4730772 124.54272,41.7604222 116.257668,49.9399612 C114.878566,51.3015843 114.294423,52.5005182 114.868776,54.4880698 C115.768162,57.5987643 116.305966,60.8139981 117.020645,64.0932621 C121.159907,61.128269 122.38563,61.2308481 125.832405,64.6166115 C126.686103,65.4542318 127.601806,66.2304354 128.43005,67.091577 C130.406348,69.1464257 130.558422,71.3182275 128.595829,73.4514806 C126.534683,75.6925397 124.286871,77.7709096 122.335374,80.100827 C121.617432,80.9580485 121.262377,82.3164047 121.199068,83.4715628 C121.136411,84.621494 121.644192,85.8034404 121.907219,86.9703592 C122.334069,88.8670923 122.764834,90.7625186 123.258909,92.9480413 C123.840442,92.5984883 124.321463,92.4135846 124.666728,92.0855929 C128.848414,88.1013426 130.019312,88.0948089 134.042399,92.0849395 C134.736845,92.7742449 135.449565,93.4465626 136.13161,94.148282 C138.484502,96.5735914 138.563476,98.3749325 136.230817,100.925689 C133.882494,103.49278 131.483914,106.023935 128.967201,108.424416 C127.452996,109.869017 127.071181,111.342367 127.546981,113.362587 C129.091209,119.920462 130.484669,126.513618 131.948619,133.089787 C132.542553,135.761417 132.515793,138.271665 130.403738,140.378783 C127.789776,142.986383 125.236513,142.772077 123.239981,139.67641 C111.213798,121.029884 99.2013219,102.374864 87.1810133,83.7250704 C86.7150036,83.0024432 86.2130968,82.3033373 85.4912387,81.2474914 C82.838769,83.8185023 80.3090021,86.2588393 77.7935941,88.7122436 C70.3974853,95.9274085 62.9798381,103.119705 55.6581342,110.409354 C54.9284439,111.136555 54.4265371,112.478577 54.4526441,113.520049 C54.6739008,122.436589 54.9734785,131.35313 55.3938009,140.263136 C55.6098362,144.834766 54.5055108,146.885695 49.959632,149 C45.2988825,141.447043 40.582003,133.893432 35.9786888,126.270565 C35.0127304,124.669808 34.0422032,124.050413 32.0946221,124.365991 C24.4916154,125.59694 22.8390432,123.777958 24.3584698,116.153783 C24.5053215,115.417436 24.6821964,114.687621 24.8988843,113.711486 C16.6764894,108.718433 8.44430432,103.719499 0,98.5918513" id="Fill-1" fill="#000000" mask="url(#mask-2)"></path>
        </g>
    </g>
</svg>